<mxfile host="app.diagrams.net" modified="2020-09-02T13:35:16.793Z" agent="5.0 (Macintosh; Intel Mac OS X 10_15_6) AppleWebKit/605.1.15 (KHTML, like Gecko) Version/13.1.2 Safari/605.1.15" etag="hk-uA3-aBOf2gkgwe4ax" version="13.6.6" type="github">
  <diagram id="jozFgqfEI4bJ2Y0bqZLH" name="Page-1">
    <mxGraphModel dx="1351" dy="946" grid="1" gridSize="10" guides="1" tooltips="1" connect="1" arrows="1" fold="1" page="1" pageScale="1" pageWidth="827" pageHeight="1169" math="0" shadow="0">
      <root>
        <mxCell id="0" />
        <mxCell id="1" parent="0" />
        <mxCell id="7s2W216BXvpof83pCkc9-3" value="" style="edgeStyle=orthogonalEdgeStyle;rounded=0;orthogonalLoop=1;jettySize=auto;html=1;strokeWidth=3;" parent="1" source="7s2W216BXvpof83pCkc9-1" target="HM-Fjf-9gjQecxtFIBgr-3" edge="1">
          <mxGeometry relative="1" as="geometry">
            <mxPoint x="404" y="230" as="targetPoint" />
          </mxGeometry>
        </mxCell>
        <mxCell id="7s2W216BXvpof83pCkc9-1" value="Start" style="ellipse;whiteSpace=wrap;html=1;" parent="1" vertex="1">
          <mxGeometry x="334" y="110" width="140" height="100" as="geometry" />
        </mxCell>
        <mxCell id="7s2W216BXvpof83pCkc9-2" value="Decide What to Eat for Breakfast" style="rhombus;whiteSpace=wrap;html=1;strokeWidth=1;perimeterSpacing=0;" parent="1" vertex="1">
          <mxGeometry x="330" y="340" width="150" height="160" as="geometry" />
        </mxCell>
        <mxCell id="7s2W216BXvpof83pCkc9-5" value="Steps to Make Other Options" style="rounded=0;whiteSpace=wrap;html=1;strokeWidth=1;" parent="1" vertex="1">
          <mxGeometry x="464" y="600" width="120" height="60" as="geometry" />
        </mxCell>
        <mxCell id="7s2W216BXvpof83pCkc9-6" value="" style="endArrow=classic;html=1;strokeWidth=3;exitX=0;exitY=0.5;exitDx=0;exitDy=0;entryX=0.5;entryY=0;entryDx=0;entryDy=0;" parent="1" source="7s2W216BXvpof83pCkc9-2" target="HM-Fjf-9gjQecxtFIBgr-5" edge="1">
          <mxGeometry width="50" height="50" relative="1" as="geometry">
            <mxPoint x="339" y="430" as="sourcePoint" />
            <mxPoint x="330" y="480" as="targetPoint" />
            <Array as="points">
              <mxPoint x="320" y="450" />
            </Array>
          </mxGeometry>
        </mxCell>
        <mxCell id="7s2W216BXvpof83pCkc9-17" value="Poptart" style="edgeLabel;html=1;align=center;verticalAlign=middle;resizable=0;points=[];" parent="7s2W216BXvpof83pCkc9-6" vertex="1" connectable="0">
          <mxGeometry x="0.1301" y="-1" relative="1" as="geometry">
            <mxPoint as="offset" />
          </mxGeometry>
        </mxCell>
        <mxCell id="7s2W216BXvpof83pCkc9-7" value="" style="endArrow=classic;html=1;strokeWidth=3;exitX=1;exitY=0.5;exitDx=0;exitDy=0;entryX=0.5;entryY=0;entryDx=0;entryDy=0;" parent="1" target="7s2W216BXvpof83pCkc9-5" edge="1">
          <mxGeometry width="50" height="50" relative="1" as="geometry">
            <mxPoint x="479" y="420" as="sourcePoint" />
            <mxPoint x="454" y="500" as="targetPoint" />
          </mxGeometry>
        </mxCell>
        <mxCell id="7s2W216BXvpof83pCkc9-16" value="Other Breakfast Options" style="edgeLabel;html=1;align=center;verticalAlign=middle;resizable=0;points=[];" parent="7s2W216BXvpof83pCkc9-7" vertex="1" connectable="0">
          <mxGeometry x="-0.136" y="2" relative="1" as="geometry">
            <mxPoint as="offset" />
          </mxGeometry>
        </mxCell>
        <mxCell id="7s2W216BXvpof83pCkc9-8" value="Put Poptart in Toaster" style="rounded=0;whiteSpace=wrap;html=1;strokeWidth=1;" parent="1" vertex="1">
          <mxGeometry x="240" y="630" width="120" height="60" as="geometry" />
        </mxCell>
        <mxCell id="7s2W216BXvpof83pCkc9-9" value="Take Poptart Out of Toaster" style="rounded=0;whiteSpace=wrap;html=1;strokeWidth=1;" parent="1" vertex="1">
          <mxGeometry x="240" y="700" width="120" height="60" as="geometry" />
        </mxCell>
        <mxCell id="7s2W216BXvpof83pCkc9-10" value="Eat Poptart" style="rounded=0;whiteSpace=wrap;html=1;strokeWidth=1;" parent="1" vertex="1">
          <mxGeometry x="240" y="770" width="120" height="60" as="geometry" />
        </mxCell>
        <mxCell id="7s2W216BXvpof83pCkc9-11" value="Finish/ Go to Class" style="ellipse;whiteSpace=wrap;html=1;strokeWidth=1;" parent="1" vertex="1">
          <mxGeometry x="344" y="860" width="120" height="80" as="geometry" />
        </mxCell>
        <mxCell id="7s2W216BXvpof83pCkc9-12" value="" style="endArrow=classic;html=1;strokeWidth=3;exitX=0.5;exitY=1;exitDx=0;exitDy=0;entryX=0.5;entryY=0;entryDx=0;entryDy=0;" parent="1" source="7s2W216BXvpof83pCkc9-5" target="7s2W216BXvpof83pCkc9-11" edge="1">
          <mxGeometry width="50" height="50" relative="1" as="geometry">
            <mxPoint x="404" y="670" as="sourcePoint" />
            <mxPoint x="454" y="620" as="targetPoint" />
          </mxGeometry>
        </mxCell>
        <mxCell id="7s2W216BXvpof83pCkc9-15" value="" style="endArrow=classic;html=1;strokeWidth=3;exitX=0.5;exitY=1;exitDx=0;exitDy=0;entryX=0.425;entryY=0.025;entryDx=0;entryDy=0;entryPerimeter=0;" parent="1" source="7s2W216BXvpof83pCkc9-10" target="7s2W216BXvpof83pCkc9-11" edge="1">
          <mxGeometry width="50" height="50" relative="1" as="geometry">
            <mxPoint x="404" y="670" as="sourcePoint" />
            <mxPoint x="454" y="620" as="targetPoint" />
            <Array as="points">
              <mxPoint x="395" y="862" />
            </Array>
          </mxGeometry>
        </mxCell>
        <mxCell id="7s2W216BXvpof83pCkc9-18" value="" style="endArrow=classic;html=1;strokeWidth=3;exitX=0.5;exitY=1;exitDx=0;exitDy=0;" parent="1" source="7s2W216BXvpof83pCkc9-8" target="7s2W216BXvpof83pCkc9-9" edge="1">
          <mxGeometry width="50" height="50" relative="1" as="geometry">
            <mxPoint x="434" y="670" as="sourcePoint" />
            <mxPoint x="484" y="620" as="targetPoint" />
          </mxGeometry>
        </mxCell>
        <mxCell id="7s2W216BXvpof83pCkc9-19" value="" style="endArrow=classic;html=1;strokeWidth=3;exitX=0.5;exitY=1;exitDx=0;exitDy=0;entryX=0.5;entryY=0;entryDx=0;entryDy=0;" parent="1" source="7s2W216BXvpof83pCkc9-9" target="7s2W216BXvpof83pCkc9-10" edge="1">
          <mxGeometry width="50" height="50" relative="1" as="geometry">
            <mxPoint x="434" y="670" as="sourcePoint" />
            <mxPoint x="484" y="620" as="targetPoint" />
          </mxGeometry>
        </mxCell>
        <mxCell id="HM-Fjf-9gjQecxtFIBgr-2" value="" style="edgeStyle=orthogonalEdgeStyle;rounded=0;orthogonalLoop=1;jettySize=auto;html=1;strokeWidth=3;" edge="1" parent="1" source="HM-Fjf-9gjQecxtFIBgr-1" target="7s2W216BXvpof83pCkc9-8">
          <mxGeometry relative="1" as="geometry" />
        </mxCell>
        <mxCell id="HM-Fjf-9gjQecxtFIBgr-1" value="Take Poptart Out of Wrapper" style="rounded=0;whiteSpace=wrap;html=1;" vertex="1" parent="1">
          <mxGeometry x="240" y="555" width="120" height="60" as="geometry" />
        </mxCell>
        <mxCell id="HM-Fjf-9gjQecxtFIBgr-4" value="" style="edgeStyle=orthogonalEdgeStyle;rounded=0;orthogonalLoop=1;jettySize=auto;html=1;strokeWidth=3;" edge="1" parent="1" source="HM-Fjf-9gjQecxtFIBgr-3" target="7s2W216BXvpof83pCkc9-2">
          <mxGeometry relative="1" as="geometry" />
        </mxCell>
        <mxCell id="HM-Fjf-9gjQecxtFIBgr-3" value="Go to Kitchen" style="rounded=0;whiteSpace=wrap;html=1;" vertex="1" parent="1">
          <mxGeometry x="344" y="250" width="120" height="60" as="geometry" />
        </mxCell>
        <mxCell id="HM-Fjf-9gjQecxtFIBgr-5" value="Get Poptart Box" style="rounded=0;whiteSpace=wrap;html=1;strokeWidth=1;" vertex="1" parent="1">
          <mxGeometry x="240" y="480" width="120" height="60" as="geometry" />
        </mxCell>
        <mxCell id="HM-Fjf-9gjQecxtFIBgr-6" value="" style="endArrow=classic;html=1;strokeWidth=3;exitX=0.5;exitY=1;exitDx=0;exitDy=0;entryX=0.5;entryY=0;entryDx=0;entryDy=0;" edge="1" parent="1" source="HM-Fjf-9gjQecxtFIBgr-5" target="HM-Fjf-9gjQecxtFIBgr-1">
          <mxGeometry width="50" height="50" relative="1" as="geometry">
            <mxPoint x="390" y="640" as="sourcePoint" />
            <mxPoint x="440" y="590" as="targetPoint" />
          </mxGeometry>
        </mxCell>
      </root>
    </mxGraphModel>
  </diagram>
</mxfile>
